<svg width="139" height="62" viewBox="0 0 139 62" fill="none" xmlns="http://www.w3.org/2000/svg">
<path d="M0.5 2.93331C0.5 1.62725 1.54415 0.770996 2.5669 0.770996C3.51532 0.770996 4.39175 1.55365 4.63356 2.9729C4.6253 3.64418 4.40698 4.16481 4.06796 4.51643C3.72389 4.8733 3.21774 5.09561 2.5669 5.09561C1.35121 5.09561 0.5 4.03924 0.5 2.93331Z" fill="#E55241" stroke="#E55241"/>
<path d="M21.8054 2.93331C21.8054 1.62726 22.8496 0.770996 23.8724 0.770996C24.8207 0.770996 25.6971 1.5535 25.939 2.97249C25.9184 4.25645 24.8849 5.09561 23.8724 5.09561C22.6566 5.09561 21.8054 4.03923 21.8054 2.93331Z" fill="#E55241" stroke="#E55241"/>
<path d="M42.8541 2.93331C42.8541 1.62726 43.8983 0.770996 44.9211 0.770996C45.5719 0.770996 46.0781 0.993314 46.4222 1.35018C46.7678 1.70868 46.988 2.24288 46.988 2.93331C46.988 4.23935 45.9439 5.09561 44.9211 5.09561C43.7053 5.09561 42.8541 4.03923 42.8541 2.93331Z" fill="#E55241" stroke="#E55241"/>
<path d="M64.1597 2.93331C64.1597 1.62725 65.2038 0.770996 66.2266 0.770996C66.8774 0.770996 67.3836 0.993312 67.7276 1.35018C68.0733 1.70868 68.2935 2.24288 68.2935 2.93331C68.2935 4.23936 67.2493 5.09561 66.2266 5.09561C65.0109 5.09561 64.1597 4.03924 64.1597 2.93331Z" fill="#E55241" stroke="#E55241"/>
<path d="M85.4651 2.93331C85.4651 1.62726 86.5093 0.770996 87.532 0.770996C88.1829 0.770996 88.689 0.993314 89.0331 1.35018C89.3788 1.70868 89.599 2.24288 89.599 2.93331C89.599 4.23935 88.5548 5.09561 87.532 5.09561C86.3163 5.09561 85.4651 4.03923 85.4651 2.93331Z" fill="#E55241" stroke="#E55241"/>
<path d="M106.771 2.93331C106.771 1.62726 107.815 0.770996 108.837 0.770996C109.488 0.770996 109.994 0.993314 110.339 1.35018C110.684 1.70868 110.904 2.24288 110.904 2.93331C110.904 4.23935 109.86 5.09561 108.837 5.09561C107.622 5.09561 106.771 4.03923 106.771 2.93331Z" fill="#E55241" stroke="#E55241"/>
<path d="M128.076 2.93331C128.076 1.62725 129.12 0.770996 130.143 0.770996C131.166 0.770996 132.21 1.62725 132.21 2.93331C132.21 4.23936 131.166 5.09561 130.143 5.09561C128.927 5.09561 128.076 4.03924 128.076 2.93331Z" fill="#E55241" stroke="#E55241"/>
<path d="M0.5 21.5543C0.5 20.2483 1.54414 19.3921 2.5669 19.3921C3.02646 19.3921 3.47844 19.6304 3.86373 20.0585C4.23847 20.4749 4.51554 21.0366 4.63345 21.6022C4.62351 22.2694 4.4056 22.7872 4.06797 23.1374C3.72389 23.4942 3.21775 23.7166 2.5669 23.7166C1.3512 23.7166 0.5 22.6602 0.5 21.5543Z" fill="#E55241" stroke="#E55241"/>
<path d="M21.8054 21.5543C21.8054 20.2483 22.8496 19.3921 23.8724 19.3921C24.3319 19.3921 24.7839 19.6304 25.1692 20.0585C25.5439 20.4748 25.8209 21.0363 25.9389 21.6017C25.914 22.881 24.8828 23.7166 23.8724 23.7166C22.6566 23.7166 21.8054 22.6602 21.8054 21.5543Z" fill="#E55241" stroke="#E55241"/>
<path d="M42.8541 21.5543C42.8541 20.2483 43.8983 19.3921 44.9211 19.3921C46.1368 19.3921 46.988 20.4485 46.988 21.5543C46.988 22.8603 45.9439 23.7166 44.9211 23.7166C43.7053 23.7166 42.8541 22.6602 42.8541 21.5543Z" fill="#E55241" stroke="#E55241"/>
<path d="M64.1597 21.5543C64.1597 20.2483 65.2038 19.3921 66.2266 19.3921C67.4423 19.3921 68.2935 20.4484 68.2935 21.5543C68.2935 22.8603 67.2493 23.7166 66.2266 23.7166C65.0109 23.7166 64.1597 22.6602 64.1597 21.5543Z" fill="#E55241" stroke="#E55241"/>
<path d="M85.4651 21.5543C85.4651 20.2483 86.5092 19.3921 87.532 19.3921C88.7478 19.3921 89.599 20.4485 89.599 21.5543C89.599 22.8603 88.5548 23.7166 87.532 23.7166C86.3163 23.7166 85.4651 22.6602 85.4651 21.5543Z" fill="#E55241" stroke="#E55241"/>
<path d="M106.771 21.5543C106.771 20.2483 107.815 19.3921 108.837 19.3921C110.053 19.3921 110.904 20.4485 110.904 21.5543C110.904 22.8603 109.86 23.7166 108.837 23.7166C107.622 23.7166 106.771 22.6602 106.771 21.5543Z" fill="#E55241" stroke="#E55241"/>
<path d="M128.076 21.5543C128.076 20.2483 129.12 19.3921 130.143 19.3921C130.616 19.3921 131.135 19.6427 131.548 20.0711C131.96 20.4984 132.21 21.045 132.21 21.5543C132.21 22.8603 131.166 23.7166 130.143 23.7166C128.927 23.7166 128.076 22.6602 128.076 21.5543Z" fill="#E55241" stroke="#E55241"/>
<path d="M4.63381 40.446C4.63381 41.6576 3.69138 42.6083 2.5669 42.6083C1.44243 42.6083 0.5 41.6576 0.5 40.446C0.5 39.2344 1.44243 38.2837 2.5669 38.2837C3.69138 38.2837 4.63381 39.2344 4.63381 40.446Z" fill="#E55241" stroke="#E55241"/>
<path d="M25.9393 40.446C25.9393 41.6576 24.9969 42.6083 23.8724 42.6083C22.7479 42.6083 21.8054 41.6576 21.8054 40.446C21.8054 39.2344 22.7479 38.2837 23.8724 38.2837C24.9969 38.2837 25.9393 39.2344 25.9393 40.446Z" fill="#E55241" stroke="#E55241"/>
<path d="M42.8541 40.446C42.8541 39.14 43.8983 38.2837 44.9211 38.2837C45.5719 38.2837 46.0781 38.506 46.4222 38.8629C46.7678 39.2214 46.988 39.7556 46.988 40.446C46.988 41.752 45.9439 42.6083 44.9211 42.6083C44.2702 42.6083 43.7641 42.386 43.42 42.0291C43.0743 41.6706 42.8541 41.1364 42.8541 40.446Z" fill="#E55241" stroke="#E55241"/>
<path d="M64.1597 40.446C64.1597 39.1399 65.2038 38.2837 66.2266 38.2837C66.8774 38.2837 67.3836 38.506 67.7276 38.8629C68.0733 39.2214 68.2935 39.7556 68.2935 40.446C68.2935 41.7521 67.2493 42.6083 66.2266 42.6083C65.5757 42.6083 65.0696 42.386 64.7255 42.0291C64.3799 41.6706 64.1597 41.1364 64.1597 40.446Z" fill="#E55241" stroke="#E55241"/>
<path d="M85.4651 40.446C85.4651 39.14 86.5093 38.2837 87.532 38.2837C88.1829 38.2837 88.689 38.506 89.0331 38.8629C89.3788 39.2214 89.599 39.7556 89.599 40.446C89.599 41.752 88.5548 42.6083 87.532 42.6083C86.8812 42.6083 86.375 42.386 86.0309 42.0291C85.6853 41.6706 85.4651 41.1364 85.4651 40.446Z" fill="#E55241" stroke="#E55241"/>
<path d="M106.771 40.446C106.771 39.14 107.815 38.2837 108.837 38.2837C109.488 38.2837 109.994 38.506 110.339 38.8629C110.684 39.2214 110.904 39.7556 110.904 40.446C110.904 41.752 109.86 42.6083 108.837 42.6083C108.187 42.6083 107.68 42.386 107.336 42.0291C106.991 41.6706 106.771 41.1364 106.771 40.446Z" fill="#E55241" stroke="#E55241"/>
<path d="M128.076 40.446C128.076 39.1399 129.12 38.2837 130.143 38.2837C131.166 38.2837 132.21 39.1399 132.21 40.446C132.21 41.7521 131.166 42.6083 130.143 42.6083C129.492 42.6083 128.986 42.386 128.642 42.0291C128.296 41.6706 128.076 41.1364 128.076 40.446Z" fill="#E55241" stroke="#E55241"/>
<path d="M4.63381 59.0715C4.63381 60.2831 3.69138 61.2338 2.5669 61.2338C1.44243 61.2338 0.5 60.2831 0.5 59.0715C0.5 57.8599 1.44243 56.9092 2.5669 56.9092C3.69138 56.9092 4.63381 57.8599 4.63381 59.0715Z" fill="#E55241" stroke="#E55241"/>
<path d="M25.9393 59.0715C25.9393 60.283 24.9969 61.2338 23.8724 61.2338C22.7479 61.2338 21.8054 60.283 21.8054 59.0715C21.8054 57.8599 22.7479 56.9092 23.8724 56.9092C24.9969 56.9092 25.9393 57.8599 25.9393 59.0715Z" fill="#E55241" stroke="#E55241"/>
<path d="M42.8541 59.3376C42.8541 58.0316 43.8983 57.1753 44.9211 57.1753C45.5719 57.1753 46.0781 57.3976 46.4222 57.7545C46.7678 58.113 46.988 58.6472 46.988 59.3376C46.988 60.6436 45.9439 61.4998 44.9211 61.4998C43.7053 61.4998 42.8541 60.4435 42.8541 59.3376Z" fill="#E55241" stroke="#E55241"/>
<path d="M64.1597 59.3376C64.1597 58.0315 65.2038 57.1753 66.2266 57.1753C66.8774 57.1753 67.3836 57.3976 67.7276 57.7545C68.0733 58.113 68.2935 58.6472 68.2935 59.3376C68.2935 60.6436 67.2493 61.4998 66.2266 61.4998C65.0109 61.4998 64.1597 60.4435 64.1597 59.3376Z" fill="#E55241" stroke="#E55241"/>
<path d="M85.4651 59.3376C85.4651 58.0316 86.5092 57.1753 87.532 57.1753C88.1829 57.1753 88.6891 57.3976 89.0331 57.7545C89.3788 58.113 89.599 58.6472 89.599 59.3376C89.599 60.6436 88.5548 61.4998 87.532 61.4998C86.3163 61.4998 85.4651 60.4435 85.4651 59.3376Z" fill="#E55241" stroke="#E55241"/>
<path d="M106.771 59.3376C106.771 58.0316 107.815 57.1753 108.837 57.1753C109.488 57.1753 109.994 57.3976 110.339 57.7545C110.684 58.113 110.904 58.6472 110.904 59.3376C110.904 60.6436 109.86 61.4998 108.837 61.4998C107.622 61.4998 106.771 60.4435 106.771 59.3376Z" fill="#E55241" stroke="#E55241"/>
<path d="M128.076 59.3376C128.076 58.0315 129.12 57.1753 130.143 57.1753C131.166 57.1753 132.21 58.0315 132.21 59.3376C132.21 60.6436 131.166 61.4998 130.143 61.4998C128.927 61.4998 128.076 60.4435 128.076 59.3376Z" fill="#E55241" stroke="#E55241"/>
</svg>
